<?xml version="1.0" encoding="UTF-8"?>
<svg id="icon32" width="32" height="32" viewBox="0 0 128 128" xmlns="http://www.w3.org/2000/svg">
                            <defs>
                                <linearGradient id="mainGrad3" x1="0%" y1="0%" x2="100%" y2="100%">
                                    <stop offset="0%" style="stop-color:#10b981"/>
                                    <stop offset="100%" style="stop-color:#06d6a0"/>
                                </linearGradient>
                                <linearGradient id="accentGrad3" x1="0%" y1="0%" x2="100%" y2="100%">
                                    <stop offset="0%" style="stop-color:#1dd1a1"/>
                                    <stop offset="100%" style="stop-color:#10b981"/>
                                </linearGradient>
                            </defs>
                            <rect width="128" height="128" rx="24" fill="url(#mainGrad3)"/>
                            <circle cx="64" cy="64" r="35" fill="none" stroke="white" stroke-width="3" opacity="0.3"/>
                            <circle cx="64" cy="64" r="25" fill="white" opacity="0.1"/>
                            <path d="M45 50 Q52 45 60 50 Q68 45 75 50 Q80 55 75 65 Q68 70 60 65 Q52 70 45 65 Q40 55 45 50" fill="white" opacity="0.9"/>
                            <path d="M50 58 Q55 55 60 58 Q65 55 70 58" stroke="url(#accentGrad3)" stroke-width="2" fill="none"/>
                            <circle cx="50" cy="62" r="2" fill="url(#accentGrad3)"/>
                            <circle cx="64" cy="60" r="2" fill="url(#accentGrad3)"/>
                            <circle cx="74" cy="62" r="2" fill="url(#accentGrad3)"/>
                            <path d="M50 62 L64 60 L74 62" stroke="white" stroke-width="1.5" opacity="0.7"/>
                        </svg>